<?xml version="1.0" encoding="UTF-8" standalone="no"?><!-- Generator: Gravit.io --><svg xmlns="http://www.w3.org/2000/svg" xmlns:xlink="http://www.w3.org/1999/xlink" style="isolation:isolate" viewBox="0 0 364 142" width="364pt" height="142pt"><defs><clipPath id="_clipPath_Si3oPnm1PdJuI9J1TRtHMkGz1W0WQcuE"><rect width="364" height="142"/></clipPath></defs><g clip-path="url(#_clipPath_Si3oPnm1PdJuI9J1TRtHMkGz1W0WQcuE)"><radialGradient id="_rgradient_0" fx="0.5" fy="0.5" cx="0.5" cy="0.5" r="0.5" gradientTransform="matrix(31.249,0,0,17.749,72.821,73.102)" gradientUnits="userSpaceOnUse"><stop offset="0%" stop-opacity="1" style="stop-color:rgb(120,162,200)"/><stop offset="10%" stop-opacity="1" style="stop-color:rgb(114,154,191)"/><stop offset="20%" stop-opacity="1" style="stop-color:rgb(108,147,182)"/><stop offset="30.000000000000004%" stop-opacity="1" style="stop-color:rgb(103,139,173)"/><stop offset="40%" stop-opacity="1" style="stop-color:rgb(97,132,164)"/><stop offset="50%" stop-opacity="1" style="stop-color:rgb(91,124,155)"/><stop offset="60%" stop-opacity="1" style="stop-color:rgb(85,117,146)"/><stop offset="70%" stop-opacity="1" style="stop-color:rgb(79,109,137)"/><stop offset="80%" stop-opacity="1" style="stop-color:rgb(74,102,128)"/><stop offset="89.99999999999999%" stop-opacity="1" style="stop-color:rgb(68,94,119)"/><stop offset="99.99999999999999%" stop-opacity="1" style="stop-color:rgb(62,87,110)"/></radialGradient><path d=" M 72.821 85.948 L 87.768 89.954 C 87.768 89.954 88.92 90.06 90.065 90.851 L 90.065 90.851 L 104.07 76.443 C 103.245 75.991 102.521 75.943 102.521 75.943 L 102.521 75.943 L 86.696 73.102 L 72.821 85.948 Z " fill="url(#_rgradient_0)"/><clipPath id="_clipPath_kYUnVHrBbqWfVTbjglEQ63zL0z4Zv1Jv"><path d=" M 0 0 L 364 0 L 364 142 L 0 142 L 0 0 Z " fill="rgb(255,255,255)"/></clipPath><g clip-path="url(#_clipPath_kYUnVHrBbqWfVTbjglEQ63zL0z4Zv1Jv)"><path d=" M 87.768 89.954 C 87.768 89.954 88.92 90.06 90.064 90.851 L 104.069 76.443 C 103.246 75.991 102.52 75.942 102.52 75.942 L 86.696 73.102 L 72.821 85.948 L 87.768 89.954 Z " fill="none" vector-effect="non-scaling-stroke" stroke-width="1.183" stroke="rgb(255,255,255)" stroke-linejoin="miter" stroke-linecap="square" stroke-miterlimit="3"/></g><radialGradient id="_rgradient_1" fx="0.5" fy="0.5" cx="0.5" cy="0.5" r="0.5" gradientTransform="matrix(29.115,0,0,15.682,57.581,70.266)" gradientUnits="userSpaceOnUse"><stop offset="0%" stop-opacity="1" style="stop-color:rgb(120,162,200)"/><stop offset="10%" stop-opacity="1" style="stop-color:rgb(114,154,191)"/><stop offset="20%" stop-opacity="1" style="stop-color:rgb(108,147,182)"/><stop offset="30.000000000000004%" stop-opacity="1" style="stop-color:rgb(103,139,173)"/><stop offset="40%" stop-opacity="1" style="stop-color:rgb(97,132,164)"/><stop offset="50%" stop-opacity="1" style="stop-color:rgb(91,124,155)"/><stop offset="60%" stop-opacity="1" style="stop-color:rgb(85,117,146)"/><stop offset="70%" stop-opacity="1" style="stop-color:rgb(79,109,137)"/><stop offset="80%" stop-opacity="1" style="stop-color:rgb(74,102,128)"/><stop offset="89.99999999999999%" stop-opacity="1" style="stop-color:rgb(68,94,119)"/><stop offset="99.99999999999999%" stop-opacity="1" style="stop-color:rgb(62,87,110)"/></radialGradient><path d=" M 57.581 81.865 L 72.821 85.948 L 86.696 73.102 L 70.905 70.266 L 57.581 81.865 Z " fill="url(#_rgradient_1)"/><clipPath id="_clipPath_2iOQg2umT6Plu3Pj0RzZgtaj9EDgerRo"><path d=" M 0 0 L 364 0 L 364 142 L 0 142 L 0 0 Z " fill="rgb(255,255,255)"/></clipPath><g clip-path="url(#_clipPath_2iOQg2umT6Plu3Pj0RzZgtaj9EDgerRo)"><path d=" M 86.696 73.103 L 70.905 70.266 L 57.582 81.865 L 72.821 85.949 L 86.696 73.103 Z " fill="none" vector-effect="non-scaling-stroke" stroke-width="1.183" stroke="rgb(255,255,255)" stroke-linejoin="miter" stroke-linecap="square" stroke-miterlimit="3"/></g><radialGradient id="_rgradient_2" fx="0.5" fy="0.5" cx="0.5" cy="0.5" r="0.5" gradientTransform="matrix(29.12,0,0,18.347,43.701,81.865)" gradientUnits="userSpaceOnUse"><stop offset="0%" stop-opacity="1" style="stop-color:rgb(120,162,200)"/><stop offset="10%" stop-opacity="1" style="stop-color:rgb(114,154,191)"/><stop offset="20%" stop-opacity="1" style="stop-color:rgb(108,147,182)"/><stop offset="30.000000000000004%" stop-opacity="1" style="stop-color:rgb(103,139,173)"/><stop offset="40%" stop-opacity="1" style="stop-color:rgb(97,132,164)"/><stop offset="50%" stop-opacity="1" style="stop-color:rgb(91,124,155)"/><stop offset="60%" stop-opacity="1" style="stop-color:rgb(85,117,146)"/><stop offset="70%" stop-opacity="1" style="stop-color:rgb(79,109,137)"/><stop offset="80%" stop-opacity="1" style="stop-color:rgb(74,102,128)"/><stop offset="89.99999999999999%" stop-opacity="1" style="stop-color:rgb(68,94,119)"/><stop offset="99.99999999999999%" stop-opacity="1" style="stop-color:rgb(62,87,110)"/></radialGradient><path d=" M 44.142 93.559 C 44.142 93.559 43.589 93.973 43.721 94.69 L 43.721 94.69 L 58.266 100.212 C 57.977 99.287 58.911 98.821 58.911 98.821 L 58.911 98.821 L 72.821 85.948 L 57.581 81.865 L 44.142 93.559 Z " fill="url(#_rgradient_2)"/><clipPath id="_clipPath_z9A6bVlOStncJl3Nl8jRyiCueKkpDRLG"><path d=" M 0 0 L 364 0 L 364 142 L 0 142 L 0 0 Z " fill="rgb(255,255,255)"/></clipPath><g clip-path="url(#_clipPath_z9A6bVlOStncJl3Nl8jRyiCueKkpDRLG)"><path d=" M 43.721 94.69 L 58.266 100.212 C 57.977 99.288 58.912 98.821 58.912 98.821 L 72.821 85.949 L 57.582 81.865 L 44.143 93.56 C 44.143 93.56 43.589 93.974 43.721 94.69 Z " fill="none" vector-effect="non-scaling-stroke" stroke-width="1.183" stroke="rgb(255,255,255)" stroke-linejoin="miter" stroke-linecap="square" stroke-miterlimit="3"/></g><radialGradient id="_rgradient_3" fx="0.5" fy="0.5" cx="0.5" cy="0.5" r="0.5" gradientTransform="matrix(31.854,0,0,20.432,58.211,85.948)" gradientUnits="userSpaceOnUse"><stop offset="0%" stop-opacity="1" style="stop-color:rgb(120,162,200)"/><stop offset="10%" stop-opacity="1" style="stop-color:rgb(114,154,191)"/><stop offset="20%" stop-opacity="1" style="stop-color:rgb(108,147,182)"/><stop offset="30.000000000000004%" stop-opacity="1" style="stop-color:rgb(103,139,173)"/><stop offset="40%" stop-opacity="1" style="stop-color:rgb(97,132,164)"/><stop offset="50%" stop-opacity="1" style="stop-color:rgb(91,124,155)"/><stop offset="60%" stop-opacity="1" style="stop-color:rgb(85,117,146)"/><stop offset="70%" stop-opacity="1" style="stop-color:rgb(79,109,137)"/><stop offset="80%" stop-opacity="1" style="stop-color:rgb(74,102,128)"/><stop offset="89.99999999999999%" stop-opacity="1" style="stop-color:rgb(68,94,119)"/><stop offset="99.99999999999999%" stop-opacity="1" style="stop-color:rgb(62,87,110)"/></radialGradient><path d=" M 58.911 98.821 C 58.911 98.821 57.977 99.287 58.266 100.212 L 58.266 100.212 L 74.909 106.38 L 75.01 106.343 L 90.065 90.851 C 88.92 90.06 87.768 89.954 87.768 89.954 L 87.768 89.954 L 72.821 85.948 L 58.911 98.821 Z " fill="url(#_rgradient_3)"/><clipPath id="_clipPath_DzcU58d8ZIaDJ4BZkUv9wVNbOOhIaXUq"><path d=" M 0 0 L 364 0 L 364 142 L 0 142 L 0 0 Z " fill="rgb(255,255,255)"/></clipPath><g clip-path="url(#_clipPath_DzcU58d8ZIaDJ4BZkUv9wVNbOOhIaXUq)"><path d=" M 58.266 100.212 L 74.909 106.38 L 75.009 106.343 L 90.064 90.852 C 88.92 90.061 87.768 89.954 87.768 89.954 L 72.821 85.948 L 58.912 98.82 C 58.912 98.82 57.977 99.287 58.266 100.212 Z " fill="none" vector-effect="non-scaling-stroke" stroke-width="1.183" stroke="rgb(255,255,255)" stroke-linejoin="miter" stroke-linecap="square" stroke-miterlimit="3"/></g><radialGradient id="_rgradient_4" fx="0.5" fy="0.5" cx="0.5" cy="0.5" r="0.5" gradientTransform="matrix(27.829,0,0,13.218,70.905,59.884)" gradientUnits="userSpaceOnUse"><stop offset="0%" stop-opacity="1" style="stop-color:rgb(120,162,200)"/><stop offset="10%" stop-opacity="1" style="stop-color:rgb(114,154,191)"/><stop offset="20%" stop-opacity="1" style="stop-color:rgb(108,147,182)"/><stop offset="30.000000000000004%" stop-opacity="1" style="stop-color:rgb(103,139,173)"/><stop offset="40%" stop-opacity="1" style="stop-color:rgb(97,132,164)"/><stop offset="50%" stop-opacity="1" style="stop-color:rgb(91,124,155)"/><stop offset="60%" stop-opacity="1" style="stop-color:rgb(85,117,146)"/><stop offset="70%" stop-opacity="1" style="stop-color:rgb(79,109,137)"/><stop offset="80%" stop-opacity="1" style="stop-color:rgb(74,102,128)"/><stop offset="89.99999999999999%" stop-opacity="1" style="stop-color:rgb(68,94,119)"/><stop offset="99.99999999999999%" stop-opacity="1" style="stop-color:rgb(62,87,110)"/></radialGradient><path d=" M 82.643 60.05 L 70.905 70.266 L 86.696 73.102 L 98.734 61.956 L 98.677 61.973 L 98.576 61.629 L 83.219 59.884 L 82.643 60.05 Z " fill="url(#_rgradient_4)"/><clipPath id="_clipPath_1vMUzx1WOfuR4ntrr2M15whGL8RaH9v0"><path d=" M 0 0 L 364 0 L 364 142 L 0 142 L 0 0 Z " fill="rgb(255,255,255)"/></clipPath><g clip-path="url(#_clipPath_1vMUzx1WOfuR4ntrr2M15whGL8RaH9v0)"><path d=" M 98.677 61.973 L 98.576 61.629 L 83.219 59.884 L 82.643 60.05 L 70.905 70.265 L 86.696 73.102 L 98.735 61.956 L 98.677 61.973 Z " fill="none" vector-effect="non-scaling-stroke" stroke-width="1.183" stroke="rgb(255,255,255)" stroke-linejoin="miter" stroke-linecap="square" stroke-miterlimit="3"/></g><radialGradient id="_rgradient_5" fx="0.5" fy="0.5" cx="0.5" cy="0.5" r="0.5" gradientTransform="matrix(29.637,0,0,14.709,86.696,61.734)" gradientUnits="userSpaceOnUse"><stop offset="0%" stop-opacity="1" style="stop-color:rgb(120,162,200)"/><stop offset="10%" stop-opacity="1" style="stop-color:rgb(114,154,191)"/><stop offset="20%" stop-opacity="1" style="stop-color:rgb(108,147,182)"/><stop offset="30.000000000000004%" stop-opacity="1" style="stop-color:rgb(103,139,173)"/><stop offset="40%" stop-opacity="1" style="stop-color:rgb(97,132,164)"/><stop offset="50%" stop-opacity="1" style="stop-color:rgb(91,124,155)"/><stop offset="60%" stop-opacity="1" style="stop-color:rgb(85,117,146)"/><stop offset="70%" stop-opacity="1" style="stop-color:rgb(79,109,137)"/><stop offset="80%" stop-opacity="1" style="stop-color:rgb(74,102,128)"/><stop offset="89.99999999999999%" stop-opacity="1" style="stop-color:rgb(68,94,119)"/><stop offset="99.99999999999999%" stop-opacity="1" style="stop-color:rgb(62,87,110)"/></radialGradient><path d=" M 98.734 61.956 L 86.696 73.102 L 102.521 75.943 C 102.521 75.943 103.245 75.991 104.07 76.443 L 104.07 76.443 L 116.333 63.822 C 115.762 63.503 115.202 63.519 115.202 63.519 L 115.202 63.519 L 99.504 61.734 L 98.734 61.956 Z " fill="url(#_rgradient_5)"/><clipPath id="_clipPath_Edw5SlFIk0hg4sUAMQDXJGm5baEFyiHv"><path d=" M 0 0 L 364 0 L 364 142 L 0 142 L 0 0 Z " fill="rgb(255,255,255)"/></clipPath><g clip-path="url(#_clipPath_Edw5SlFIk0hg4sUAMQDXJGm5baEFyiHv)"><path d=" M 115.202 63.519 L 99.504 61.733 L 98.734 61.956 L 86.696 73.102 L 102.52 75.942 C 102.52 75.942 103.245 75.991 104.069 76.443 L 116.333 63.823 C 115.763 63.503 115.202 63.519 115.202 63.519 Z " fill="none" vector-effect="non-scaling-stroke" stroke-width="1.183" stroke="rgb(255,255,255)" stroke-linejoin="miter" stroke-linecap="square" stroke-miterlimit="3"/></g><radialGradient id="_rgradient_6" fx="0.5" fy="0.5" cx="0.5" cy="0.5" r="0.5" gradientTransform="matrix(25.535,0,0,13.852,45.37,68.013)" gradientUnits="userSpaceOnUse"><stop offset="0%" stop-opacity="1" style="stop-color:rgb(120,162,200)"/><stop offset="10%" stop-opacity="1" style="stop-color:rgb(114,154,191)"/><stop offset="20%" stop-opacity="1" style="stop-color:rgb(108,147,182)"/><stop offset="30.000000000000004%" stop-opacity="1" style="stop-color:rgb(103,139,173)"/><stop offset="40%" stop-opacity="1" style="stop-color:rgb(97,132,164)"/><stop offset="50%" stop-opacity="1" style="stop-color:rgb(91,124,155)"/><stop offset="60%" stop-opacity="1" style="stop-color:rgb(85,117,146)"/><stop offset="70%" stop-opacity="1" style="stop-color:rgb(79,109,137)"/><stop offset="80%" stop-opacity="1" style="stop-color:rgb(74,102,128)"/><stop offset="89.99999999999999%" stop-opacity="1" style="stop-color:rgb(68,94,119)"/><stop offset="99.99999999999999%" stop-opacity="1" style="stop-color:rgb(62,87,110)"/></radialGradient><path d=" M 58.365 68.019 L 57.62 68.069 L 45.37 78.097 L 45.619 78.619 L 45.51 78.626 L 57.581 81.865 L 70.905 70.266 L 58.362 68.013 L 58.365 68.019 Z " fill="url(#_rgradient_6)"/><clipPath id="_clipPath_3HhFbypT934wlslnqeijnMGNBIo3uG71"><path d=" M 0 0 L 364 0 L 364 142 L 0 142 L 0 0 Z " fill="rgb(255,255,255)"/></clipPath><g clip-path="url(#_clipPath_3HhFbypT934wlslnqeijnMGNBIo3uG71)"><path d=" M 58.365 68.02 L 57.62 68.069 L 45.37 78.098 L 45.619 78.619 L 45.511 78.625 L 57.582 81.864 L 70.905 70.265 L 58.363 68.012 L 58.365 68.02 Z " fill="none" vector-effect="non-scaling-stroke" stroke-width="1.183" stroke="rgb(255,255,255)" stroke-linejoin="miter" stroke-linecap="square" stroke-miterlimit="3"/><path d=" M 88.406 73.763 C 87.797 74.393 86.785 74.587 86.144 74.2 C 85.502 73.812 85.476 72.99 86.085 72.358 C 86.695 71.728 87.708 71.534 88.348 71.922 C 88.989 72.308 89.016 73.133 88.406 73.763 Z " fill="rgb(255,255,255)"/></g><radialGradient id="_rgradient_7" fx="0.5" fy="0.5" cx="0.5" cy="0.5" r="0.5" gradientTransform="matrix(26.152,0,0,16.064,31.429,78.626)" gradientUnits="userSpaceOnUse"><stop offset="0%" stop-opacity="1" style="stop-color:rgb(120,162,200)"/><stop offset="10%" stop-opacity="1" style="stop-color:rgb(114,154,191)"/><stop offset="20%" stop-opacity="1" style="stop-color:rgb(108,147,182)"/><stop offset="30.000000000000004%" stop-opacity="1" style="stop-color:rgb(103,139,173)"/><stop offset="40%" stop-opacity="1" style="stop-color:rgb(97,132,164)"/><stop offset="50%" stop-opacity="1" style="stop-color:rgb(91,124,155)"/><stop offset="60%" stop-opacity="1" style="stop-color:rgb(85,117,146)"/><stop offset="70%" stop-opacity="1" style="stop-color:rgb(79,109,137)"/><stop offset="80%" stop-opacity="1" style="stop-color:rgb(74,102,128)"/><stop offset="89.99999999999999%" stop-opacity="1" style="stop-color:rgb(68,94,119)"/><stop offset="99.99999999999999%" stop-opacity="1" style="stop-color:rgb(62,87,110)"/></radialGradient><path d=" M 44.658 78.68 L 31.789 89.217 C 31.496 89.505 31.412 89.778 31.432 90.021 L 31.432 90.021 L 43.721 94.69 C 43.589 93.973 44.142 93.559 44.142 93.559 L 44.142 93.559 L 57.581 81.865 L 45.51 78.626 L 44.658 78.68 Z " fill="url(#_rgradient_7)"/><clipPath id="_clipPath_O4wU0vaCnOhzzzc1cegIyvLvOvDNNv3l"><path d=" M 0 0 L 364 0 L 364 142 L 0 142 L 0 0 Z " fill="rgb(255,255,255)"/></clipPath><g clip-path="url(#_clipPath_O4wU0vaCnOhzzzc1cegIyvLvOvDNNv3l)"><path d=" M 44.658 78.681 L 31.788 89.217 C 31.496 89.505 31.412 89.779 31.431 90.022 L 43.721 94.69 C 43.589 93.974 44.142 93.56 44.142 93.56 L 57.581 81.865 L 45.511 78.626 L 44.658 78.681 Z " fill="none" vector-effect="non-scaling-stroke" stroke-width="1.183" stroke="rgb(255,255,255)" stroke-linejoin="miter" stroke-linecap="square" stroke-miterlimit="3"/></g><radialGradient id="_rgradient_8" fx="0.5" fy="0.5" cx="0.5" cy="0.5" r="0.5" gradientTransform="matrix(24.471,0,0,11.807,58.172,58.459)" gradientUnits="userSpaceOnUse"><stop offset="0%" stop-opacity="1" style="stop-color:rgb(120,162,200)"/><stop offset="10%" stop-opacity="1" style="stop-color:rgb(114,154,191)"/><stop offset="20%" stop-opacity="1" style="stop-color:rgb(108,147,182)"/><stop offset="30.000000000000004%" stop-opacity="1" style="stop-color:rgb(103,139,173)"/><stop offset="40%" stop-opacity="1" style="stop-color:rgb(97,132,164)"/><stop offset="50%" stop-opacity="1" style="stop-color:rgb(91,124,155)"/><stop offset="60%" stop-opacity="1" style="stop-color:rgb(85,117,146)"/><stop offset="70%" stop-opacity="1" style="stop-color:rgb(79,109,137)"/><stop offset="80%" stop-opacity="1" style="stop-color:rgb(74,102,128)"/><stop offset="89.99999999999999%" stop-opacity="1" style="stop-color:rgb(68,94,119)"/><stop offset="99.99999999999999%" stop-opacity="1" style="stop-color:rgb(62,87,110)"/></radialGradient><path d=" M 68.174 59.426 L 58.172 67.616 L 58.362 68.013 L 70.905 70.266 L 82.643 60.05 L 82.617 60.057 L 82.544 59.807 L 71.236 58.521 C 70.992 58.478 70.761 58.459 70.545 58.459 L 70.545 58.459 C 69.005 58.459 68.174 59.426 68.174 59.426 Z " fill="url(#_rgradient_8)"/><clipPath id="_clipPath_L0XVSOPrVwU1WuL9jPrnyd1JCXEZSJkH"><path d=" M 0 0 L 364 0 L 364 142 L 0 142 L 0 0 Z " fill="rgb(255,255,255)"/></clipPath><g clip-path="url(#_clipPath_L0XVSOPrVwU1WuL9jPrnyd1JCXEZSJkH)"><path d=" M 82.618 60.057 L 82.544 59.807 L 71.236 58.521 C 69.255 58.168 68.175 59.426 68.175 59.426 L 58.172 67.617 L 58.363 68.013 L 70.905 70.266 L 82.643 60.05 L 82.618 60.057 Z " fill="none" vector-effect="non-scaling-stroke" stroke-width="1.183" stroke="rgb(255,255,255)" stroke-linejoin="miter" stroke-linecap="square" stroke-miterlimit="3"/><path d=" M 71.87 71.135 C 71.125 71.666 70.089 71.703 69.557 71.224 C 69.022 70.741 69.193 69.926 69.94 69.396 C 70.685 68.868 71.722 68.828 72.255 69.308 C 72.788 69.789 72.616 70.607 71.87 71.135 Z " fill="rgb(255,255,255)"/></g><radialGradient id="_rgradient_9" fx="0.5" fy="0.5" cx="0.5" cy="0.5" r="0.5" gradientTransform="matrix(92.768,0,0,52.363,27.553,57.055)" gradientUnits="userSpaceOnUse"><stop offset="0%" stop-opacity="1" style="stop-color:rgb(255,241,0)"/><stop offset="10%" stop-opacity="1" style="stop-color:rgb(255,229,0)"/><stop offset="20%" stop-opacity="1" style="stop-color:rgb(255,218,0)"/><stop offset="30.000000000000004%" stop-opacity="1" style="stop-color:rgb(255,206,0)"/><stop offset="40%" stop-opacity="1" style="stop-color:rgb(255,194,0)"/><stop offset="50%" stop-opacity="1" style="stop-color:rgb(255,183,0)"/><stop offset="60%" stop-opacity="1" style="stop-color:rgb(255,171,0)"/><stop offset="70%" stop-opacity="1" style="stop-color:rgb(255,159,0)"/><stop offset="80%" stop-opacity="1" style="stop-color:rgb(255,147,0)"/><stop offset="89.99999999999999%" stop-opacity="1" style="stop-color:rgb(255,136,0)"/><stop offset="99.99999999999999%" stop-opacity="1" style="stop-color:rgb(255,124,0)"/></radialGradient><path d=" M 67.702 58.112 L 56.775 67.062 L 56.983 67.496 L 56.985 67.503 L 56.168 67.557 L 42.786 78.517 L 43.056 79.087 L 42.94 79.091 L 42.008 79.157 L 27.948 90.665 C 27.629 90.981 27.536 91.277 27.555 91.544 L 27.555 91.544 L 40.983 96.645 L 56.877 102.677 L 75.059 109.418 L 75.172 109.375 L 91.62 92.451 L 106.922 76.704 L 120.321 62.918 C 119.695 62.57 119.085 62.585 119.085 62.585 L 119.085 62.585 L 101.932 60.635 L 101.092 60.878 L 101.028 60.899 L 100.921 60.52 L 84.139 58.615 L 83.509 58.794 L 83.484 58.802 L 83.403 58.53 L 71.047 57.124 C 70.78 57.076 70.527 57.055 70.291 57.055 L 70.291 57.055 C 68.607 57.055 67.702 58.112 67.702 58.112 Z  M 58.266 100.212 L 43.721 94.69 L 31.432 90.021 C 31.412 89.778 31.496 89.505 31.789 89.217 L 31.789 89.217 L 44.658 78.68 L 45.51 78.626 L 45.619 78.619 L 45.37 78.097 L 57.62 68.069 L 58.365 68.019 L 58.362 68.013 L 58.172 67.616 L 68.174 59.426 C 68.174 59.426 69.255 58.168 71.236 58.521 L 71.236 58.521 L 82.544 59.807 L 82.617 60.057 L 82.643 60.05 L 83.219 59.884 L 98.576 61.629 L 98.677 61.973 L 98.734 61.956 L 99.504 61.734 L 115.202 63.519 C 115.202 63.519 115.762 63.503 116.333 63.822 L 116.333 63.822 L 104.07 76.443 L 90.065 90.851 L 75.01 106.343 L 74.909 106.38 L 58.266 100.212 Z " fill="url(#_rgradient_9)"/><clipPath id="_clipPath_VJkKUqoQY0wZGPqHESny4AdGOpt4umpD"><path d=" M 0 0 L 364 0 L 364 142 L 0 142 L 0 0 Z " fill="rgb(255,255,255)"/></clipPath><g clip-path="url(#_clipPath_VJkKUqoQY0wZGPqHESny4AdGOpt4umpD)"><path d=" M 73.945 86.677 C 73.318 87.348 72.257 87.566 71.573 87.169 C 70.89 86.769 70.844 85.904 71.472 85.232 C 72.099 84.563 73.161 84.344 73.844 84.742 C 74.528 85.14 74.573 86.007 73.945 86.677 Z " fill="rgb(255,255,255)"/><path d=" M 58.742 82.565 C 58.133 83.197 57.12 83.391 56.48 83.002 C 55.839 82.613 55.811 81.792 56.422 81.16 C 57.031 80.532 58.044 80.336 58.684 80.724 C 59.326 81.111 59.352 81.936 58.742 82.565 Z " fill="rgb(255,255,255)"/></g><radialGradient id="_rgradient_10" fx="0.5" fy="0.5" cx="0.5" cy="0.5" r="0.5" gradientTransform="matrix(60.521,0,0,65.465,45.267,35.428)" gradientUnits="userSpaceOnUse"><stop offset="0%" stop-opacity="1" style="stop-color:rgb(255,204,0)"/><stop offset="10%" stop-opacity="1" style="stop-color:rgb(255,196,0)"/><stop offset="20%" stop-opacity="1" style="stop-color:rgb(255,188,0)"/><stop offset="30.000000000000004%" stop-opacity="1" style="stop-color:rgb(255,180,0)"/><stop offset="40%" stop-opacity="1" style="stop-color:rgb(255,172,0)"/><stop offset="50%" stop-opacity="1" style="stop-color:rgb(255,164,0)"/><stop offset="60%" stop-opacity="1" style="stop-color:rgb(255,156,0)"/><stop offset="70%" stop-opacity="1" style="stop-color:rgb(255,148,0)"/><stop offset="80%" stop-opacity="1" style="stop-color:rgb(255,140,0)"/><stop offset="89.99999999999999%" stop-opacity="1" style="stop-color:rgb(255,132,0)"/><stop offset="99.99999999999999%" stop-opacity="1" style="stop-color:rgb(255,124,0)"/></radialGradient><path d=" M 102.598 45.251 C 99.662 50.992 83.717 56.522 45.267 40.857 L 45.267 40.857 C 45.267 40.857 56.281 51.814 76.266 55.522 L 76.266 55.522 C 76.266 55.522 44.222 76.544 73.733 100.893 L 73.733 100.893 C 73.733 100.893 59.744 84.721 70.12 70.791 L 70.12 70.791 C 80.501 56.855 100.769 58.33 105.062 47.54 L 105.062 47.54 C 108.17 39.746 100.3 35.428 100.3 35.428 L 100.3 35.428 C 100.3 35.428 105.536 39.515 102.598 45.251 Z " fill="url(#_rgradient_10)"/><radialGradient id="_rgradient_11" fx="0.5" fy="0.5" cx="0.5" cy="0.5" r="0.5" gradientTransform="matrix(13.714,0,0,12.757,79.662,32.582)" gradientUnits="userSpaceOnUse"><stop offset="0%" stop-opacity="1" style="stop-color:rgb(255,241,0)"/><stop offset="10%" stop-opacity="1" style="stop-color:rgb(255,229,0)"/><stop offset="20%" stop-opacity="1" style="stop-color:rgb(255,218,0)"/><stop offset="30.000000000000004%" stop-opacity="1" style="stop-color:rgb(255,206,0)"/><stop offset="40%" stop-opacity="1" style="stop-color:rgb(255,194,0)"/><stop offset="50%" stop-opacity="1" style="stop-color:rgb(255,183,0)"/><stop offset="60%" stop-opacity="1" style="stop-color:rgb(255,171,0)"/><stop offset="70%" stop-opacity="1" style="stop-color:rgb(255,159,0)"/><stop offset="80%" stop-opacity="1" style="stop-color:rgb(255,147,0)"/><stop offset="89.99999999999999%" stop-opacity="1" style="stop-color:rgb(255,136,0)"/><stop offset="99.99999999999999%" stop-opacity="1" style="stop-color:rgb(255,124,0)"/></radialGradient><path d=" M 86.394 32.584 C 82.61 32.673 79.594 35.598 79.663 39.117 L 79.663 39.117 C 79.734 42.641 82.861 45.424 86.649 45.337 L 86.649 45.337 C 90.435 45.247 93.448 42.32 93.375 38.797 L 93.375 38.797 C 93.308 35.33 90.281 32.582 86.571 32.582 L 86.571 32.582 C 86.512 32.582 86.453 32.583 86.394 32.584 Z " fill="url(#_rgradient_11)"/><path d=" M 86.394 32.584 C 82.61 32.673 79.594 35.598 79.663 39.117 L 79.663 39.117 C 79.663 39.142 79.667 39.162 79.668 39.182 L 79.668 39.182 C 81.753 39.713 84.207 39.997 86.843 39.936 L 86.843 39.936 C 89.221 39.881 91.444 39.552 93.369 39.026 L 93.369 39.026 C 93.37 38.951 93.377 38.875 93.375 38.797 L 93.375 38.797 C 93.308 35.33 90.28 32.582 86.571 32.582 L 86.571 32.582 C 86.512 32.582 86.453 32.583 86.394 32.584 Z " fill="none"/><clipPath id="_clipPath_cgomuM94dhG3Xdfn7fCFU0Vz1Kf14xAb"><path d=" M 0 0 L 364 0 L 364 142 L 0 142 L 0 0 Z " fill="rgb(255,255,255)"/></clipPath><g clip-path="url(#_clipPath_cgomuM94dhG3Xdfn7fCFU0Vz1Kf14xAb)"><path d=" M 130.092 99.216 C 130.285 101.19 131.73 101.608 132.468 101.608 C 133.705 101.608 134.845 100.66 134.845 99.344 C 134.845 97.674 133.416 97.304 132.035 96.856 C 131.071 96.566 129.001 95.955 129.001 93.707 C 128.968 91.606 130.719 90.434 132.533 90.434 C 134.01 90.434 135.712 91.25 135.904 93.499 L 134.588 93.499 C 134.444 92.729 134.058 91.557 132.485 91.557 C 131.297 91.557 130.317 92.36 130.317 93.595 C 130.301 95.04 131.473 95.394 133.272 96.002 C 134.396 96.438 136.162 97.064 136.162 99.247 C 136.162 101.19 134.701 102.731 132.485 102.731 C 130.494 102.731 128.84 101.48 128.759 99.216 L 130.092 99.216 Z " fill="rgb(62,87,110)"/><path d=" M 141.926 96.581 C 141.926 99.376 144.03 101.559 146.807 101.559 C 149.617 101.559 151.673 99.296 151.673 96.581 C 151.673 93.869 149.617 91.605 146.791 91.605 C 143.997 91.605 141.926 93.82 141.926 96.565 L 141.926 96.581 Z  M 140.593 96.614 C 140.593 92.953 143.436 90.434 146.791 90.434 C 150.275 90.434 152.989 93.098 152.989 96.581 C 152.989 100.066 150.291 102.73 146.791 102.73 C 143.274 102.73 140.593 100.019 140.593 96.63 L 140.593 96.614 Z " fill="rgb(62,87,110)"/><path d=" M 158.047 90.64 L 159.38 90.64 L 159.38 101.352 L 163.906 101.352 L 163.906 102.523 L 158.047 102.523 L 158.047 90.64 Z " fill="rgb(62,87,110)"/><path d=" M 172.866 92.134 L 170.505 98.091 L 175.242 98.091 L 172.866 92.134 Z  M 168.74 102.523 L 167.31 102.523 L 172.272 90.64 L 173.557 90.64 L 178.47 102.523 L 177.025 102.523 L 175.643 99.183 L 170.104 99.183 L 168.74 102.523 Z " fill="rgb(62,87,110)"/><path d=" M 182.885 90.64 L 185.985 90.64 C 187.847 90.64 188.714 90.867 189.323 91.25 C 190.287 91.829 190.946 93.098 190.946 94.446 C 190.962 95.248 190.737 96.102 190.239 96.774 C 189.532 97.74 188.681 97.963 187.59 98.076 L 190.544 102.523 L 189.099 102.523 L 185.743 97.335 L 186.129 97.335 C 186.963 97.335 188.119 97.321 188.762 96.725 C 189.388 96.117 189.661 95.394 189.661 94.542 C 189.661 93.66 189.227 92.729 188.489 92.246 C 187.895 91.862 187.156 91.814 186.081 91.814 L 184.218 91.814 L 184.218 102.523 L 182.885 102.523 L 182.885 90.64 Z " fill="rgb(62,87,110)"/><path d=" M 203.47 102.523 L 203.47 90.64 L 205.331 90.64 L 209.731 100.611 L 214.115 90.64 L 215.976 90.64 L 215.976 102.523 L 214.725 102.523 L 214.757 91.958 L 210.15 102.523 L 209.298 102.523 L 204.674 91.958 L 204.706 102.523 L 203.47 102.523 Z " fill="rgb(62,87,110)"/><path d=" M 226.06 92.134 L 223.701 98.091 L 228.436 98.091 L 226.06 92.134 Z  M 221.934 102.523 L 220.503 102.523 L 225.466 90.64 L 226.75 90.64 L 231.664 102.523 L 230.218 102.523 L 228.838 99.183 L 223.299 99.183 L 221.934 102.523 Z " fill="rgb(62,87,110)"/><path d=" M 237.509 101.352 L 239.869 101.352 C 242.919 101.352 244.509 99.472 244.509 96.615 C 244.509 95.233 244.14 94.013 243.353 93.147 C 242.599 92.344 241.49 91.814 239.869 91.814 L 237.509 91.814 L 237.509 101.352 Z  M 236.193 90.64 L 239.741 90.64 C 241.426 90.64 243.226 91.011 244.413 92.424 C 245.376 93.483 245.842 94.881 245.842 96.566 C 245.842 100.147 243.803 102.523 239.805 102.523 L 236.193 102.523 L 236.193 90.64 Z " fill="rgb(62,87,110)"/><path d=" M 250.884 90.64 L 257.466 90.64 L 257.466 91.814 L 252.198 91.814 L 252.198 95.94 L 257.434 95.94 L 257.434 97.112 L 252.198 97.112 L 252.198 101.352 L 257.466 101.352 L 257.466 102.523 L 250.884 102.523 L 250.884 90.64 Z " fill="rgb(62,87,110)"/><path d=" M 271.371 99.216 C 271.564 101.19 273.009 101.608 273.748 101.608 C 274.984 101.608 276.123 100.66 276.123 99.344 C 276.123 97.674 274.694 97.304 273.313 96.856 C 272.35 96.566 270.279 95.955 270.279 93.707 C 270.247 91.606 271.998 90.434 273.812 90.434 C 275.289 90.434 276.992 91.25 277.183 93.499 L 275.866 93.499 C 275.723 92.729 275.337 91.557 273.764 91.557 C 272.577 91.557 271.596 92.36 271.596 93.595 C 271.58 95.04 272.752 95.394 274.551 96.002 C 275.675 96.438 277.441 97.064 277.441 99.247 C 277.441 101.19 275.979 102.731 273.764 102.731 C 271.773 102.731 270.119 101.48 270.038 99.216 L 271.371 99.216 Z " fill="rgb(62,87,110)"/><path d=" M 282.435 90.64 L 283.75 90.64 L 283.75 102.523 L 282.435 102.523 L 282.435 90.64 Z " fill="rgb(62,87,110)"/><path d=" M 289.356 102.523 L 289.356 90.64 L 291.217 90.64 L 295.616 100.611 L 300 90.64 L 301.862 90.64 L 301.862 102.523 L 300.61 102.523 L 300.642 91.958 L 296.036 102.523 L 295.183 102.523 L 290.558 91.958 L 290.591 102.523 L 289.356 102.523 Z " fill="rgb(62,87,110)"/><path d=" M 308.67 96.678 L 310.566 96.678 C 311.56 96.678 312.17 96.566 312.765 96.181 C 313.278 95.843 313.648 95.088 313.648 94.254 C 313.648 93.403 313.278 92.649 312.749 92.312 C 312.154 91.926 311.544 91.814 310.532 91.814 L 308.67 91.814 L 308.67 96.678 Z  M 310.47 90.64 C 312.139 90.64 312.926 90.834 313.664 91.396 C 314.45 92.006 314.932 93.114 314.932 94.221 C 314.932 95.346 314.435 96.486 313.711 97.048 C 312.926 97.658 312.122 97.85 310.581 97.85 L 308.67 97.85 L 308.67 102.523 L 307.338 102.523 L 307.338 90.64 L 310.47 90.64 Z " fill="rgb(62,87,110)"/><path d=" M 319.54 90.64 L 320.872 90.64 L 320.872 101.352 L 325.399 101.352 L 325.399 102.523 L 319.54 102.523 L 319.54 90.64 Z " fill="rgb(62,87,110)"/><path d=" M 329.863 90.64 L 336.446 90.64 L 336.446 91.814 L 331.179 91.814 L 331.179 95.94 L 336.415 95.94 L 336.415 97.112 L 331.179 97.112 L 331.179 101.352 L 336.446 101.352 L 336.446 102.523 L 329.863 102.523 L 329.863 90.64 Z " fill="rgb(62,87,110)"/><path d=" M 141.289 52.304 L 141.177 39.661 L 146.249 39.661 L 146.249 60.404 L 141.653 60.404 L 133.72 47.902 L 133.832 60.404 L 128.759 60.404 L 128.759 39.661 L 133.328 39.661 L 141.289 52.304 Z " fill="rgb(62,87,110)"/><path d=" M 148.795 39.662 L 160.539 39.662 L 160.539 44.314 L 154.092 44.314 L 154.092 47.538 L 160.343 47.538 L 160.343 52.191 L 154.092 52.191 L 154.092 55.752 L 160.539 55.752 L 160.539 60.404 L 148.795 60.404 L 148.795 39.662 Z " fill="rgb(62,87,110)"/><path d=" M 160.927 39.662 L 166.309 39.662 L 169.14 53.145 L 172.195 39.662 L 176.259 39.662 L 179.314 53.201 L 182.145 39.662 L 187.499 39.662 L 182.005 60.404 L 177.352 60.404 L 174.186 46.978 L 171.073 60.404 L 166.281 60.404 L 160.927 39.662 Z " fill="rgb(62,87,110)"/><path d=" M 189.176 39.662 L 194.473 39.662 L 194.473 48.996 L 200.387 39.662 L 205.937 39.662 L 199.098 49.977 L 206.639 60.404 L 200.191 60.404 L 194.473 51.435 L 194.473 60.404 L 189.176 60.404 L 189.176 39.662 Z " fill="rgb(62,87,110)"/><path d=" M 205.953 39.662 L 211.251 39.662 L 211.251 60.404 L 205.953 60.404 L 205.953 39.662 Z " fill="rgb(62,87,110)"/><path d=" M 213.768 39.662 L 220.551 39.662 C 223.802 39.662 225.821 40.251 226.97 41.148 C 228.707 42.493 229.492 44.54 229.492 46.81 C 229.492 48.408 229.044 49.641 228.456 50.566 C 227.755 51.659 226.745 52.359 225.765 52.781 L 230.052 60.404 L 224.587 60.404 L 219.177 50.397 L 220.046 50.397 C 221.391 50.397 222.541 50.286 223.243 49.838 C 223.886 49.417 224.418 48.435 224.418 47.287 C 224.418 46.193 223.886 45.324 223.186 44.875 C 222.597 44.511 221.755 44.314 221.027 44.314 L 219.065 44.314 L 219.065 60.404 L 213.768 60.404 L 213.768 39.662 Z " fill="rgb(62,87,110)"/><path d=" M 230.153 39.662 L 235.451 39.662 L 235.451 48.996 L 241.365 39.662 L 246.915 39.662 L 240.076 49.977 L 247.616 60.404 L 241.17 60.404 L 235.451 51.435 L 235.451 60.404 L 230.153 60.404 L 230.153 39.662 Z " fill="rgb(62,87,110)"/></g><linearGradient id="_lgradient_0" x1="0.4999433308660244" y1="-0.7234381178000748" x2="0.4999432124352339" y2="0.9773099649600654" gradientTransform="matrix(13.51,0,0,21.528,248.486,39.269)" gradientUnits="userSpaceOnUse"><stop offset="0%" stop-opacity="1" style="stop-color:rgb(255,241,0)"/><stop offset="10%" stop-opacity="1" style="stop-color:rgb(255,229,0)"/><stop offset="20%" stop-opacity="1" style="stop-color:rgb(255,218,0)"/><stop offset="30.000000000000004%" stop-opacity="1" style="stop-color:rgb(255,206,0)"/><stop offset="40%" stop-opacity="1" style="stop-color:rgb(255,194,0)"/><stop offset="50%" stop-opacity="1" style="stop-color:rgb(255,183,0)"/><stop offset="60%" stop-opacity="1" style="stop-color:rgb(255,171,0)"/><stop offset="70%" stop-opacity="1" style="stop-color:rgb(255,159,0)"/><stop offset="80%" stop-opacity="1" style="stop-color:rgb(255,147,0)"/><stop offset="89.99999999999999%" stop-opacity="1" style="stop-color:rgb(255,136,0)"/><stop offset="99.99999999999999%" stop-opacity="1" style="stop-color:rgb(255,124,0)"/></linearGradient><path d=" M 248.85 45.24 C 248.85 49.136 252.464 50.341 254.092 50.874 L 254.092 50.874 C 256.754 51.855 258.717 52.387 258.717 54.686 L 258.717 54.686 C 258.717 56.536 257.118 57.994 255.27 57.994 L 255.27 57.994 C 254.176 57.994 251.989 57.377 251.764 54.265 L 251.764 54.265 L 248.486 54.265 C 248.541 58.273 251.176 60.797 255.296 60.797 L 255.296 60.797 C 259.725 60.797 261.996 57.882 261.996 54.517 L 261.996 54.517 C 261.996 51.154 259.585 49.837 257.006 48.744 L 257.006 48.744 C 253.671 47.51 252.129 47.005 252.129 44.988 L 252.129 44.988 C 252.129 43.221 253.587 42.073 255.27 42.073 L 255.27 42.073 C 257.651 42.073 258.155 43.867 258.38 44.988 L 258.38 44.988 L 261.631 44.988 C 261.379 40.726 258.043 39.269 255.381 39.269 L 255.381 39.269 C 252.129 39.269 248.822 41.372 248.85 45.24 Z " fill="url(#_lgradient_0)"/><linearGradient id="_lgradient_1" x1="0.49997051187626695" y1="-0.7234381178000748" x2="0.4999704382250041" y2="0.9773099504497542" gradientTransform="matrix(21.724,0,0,21.528,263.957,39.269)" gradientUnits="userSpaceOnUse"><stop offset="0%" stop-opacity="1" style="stop-color:rgb(255,241,0)"/><stop offset="10%" stop-opacity="1" style="stop-color:rgb(255,229,0)"/><stop offset="20%" stop-opacity="1" style="stop-color:rgb(255,218,0)"/><stop offset="30.000000000000004%" stop-opacity="1" style="stop-color:rgb(255,206,0)"/><stop offset="40%" stop-opacity="1" style="stop-color:rgb(255,194,0)"/><stop offset="50%" stop-opacity="1" style="stop-color:rgb(255,183,0)"/><stop offset="60%" stop-opacity="1" style="stop-color:rgb(255,171,0)"/><stop offset="70%" stop-opacity="1" style="stop-color:rgb(255,159,0)"/><stop offset="80%" stop-opacity="1" style="stop-color:rgb(255,147,0)"/><stop offset="89.99999999999999%" stop-opacity="1" style="stop-color:rgb(255,136,0)"/><stop offset="99.99999999999999%" stop-opacity="1" style="stop-color:rgb(255,124,0)"/></linearGradient><path d=" M 263.957 50.146 L 263.957 50.173 C 263.957 55.893 268.527 60.797 274.777 60.797 L 274.777 60.797 C 281 60.797 285.681 56.003 285.681 50.033 L 285.681 50.033 C 285.681 44.062 281 39.269 274.805 39.269 L 274.805 39.269 C 268.975 39.269 263.957 43.613 263.957 50.146 Z  M 267.237 50.033 L 267.237 50.006 C 267.237 45.829 270.32 42.183 274.834 42.183 L 274.834 42.183 C 279.375 42.183 282.374 45.997 282.374 50.061 L 282.374 50.061 C 282.374 54.097 279.375 57.882 274.863 57.882 L 274.863 57.882 C 270.433 57.882 267.237 54.349 267.237 50.033 Z " fill="url(#_lgradient_1)"/><linearGradient id="_lgradient_2" x1="0.5000250023533823" y1="-0.7697521550477298" x2="0.5000248517367929" y2="0.995383780955859" gradientTransform="matrix(10.623,0,0,20.742,288.823,39.662)" gradientUnits="userSpaceOnUse"><stop offset="0%" stop-opacity="1" style="stop-color:rgb(255,241,0)"/><stop offset="10%" stop-opacity="1" style="stop-color:rgb(255,229,0)"/><stop offset="20%" stop-opacity="1" style="stop-color:rgb(255,218,0)"/><stop offset="30.000000000000004%" stop-opacity="1" style="stop-color:rgb(255,206,0)"/><stop offset="40%" stop-opacity="1" style="stop-color:rgb(255,194,0)"/><stop offset="50%" stop-opacity="1" style="stop-color:rgb(255,183,0)"/><stop offset="60%" stop-opacity="1" style="stop-color:rgb(255,171,0)"/><stop offset="70%" stop-opacity="1" style="stop-color:rgb(255,159,0)"/><stop offset="80%" stop-opacity="1" style="stop-color:rgb(255,147,0)"/><stop offset="89.99999999999999%" stop-opacity="1" style="stop-color:rgb(255,136,0)"/><stop offset="99.99999999999999%" stop-opacity="1" style="stop-color:rgb(255,124,0)"/></linearGradient><path d=" M 288.823 39.662 L 288.823 60.404 L 299.446 60.404 L 299.446 57.49 L 292.129 57.49 L 292.129 39.662 L 288.823 39.662 Z " fill="url(#_lgradient_2)"/><linearGradient id="_lgradient_3" x1="0.5000361155778901" y1="-0.7697521550477298" x2="0.5000360351758797" y2="0.995383798760539" gradientTransform="matrix(19.9,0,0,20.742,299.811,39.662)" gradientUnits="userSpaceOnUse"><stop offset="0%" stop-opacity="1" style="stop-color:rgb(255,241,0)"/><stop offset="10%" stop-opacity="1" style="stop-color:rgb(255,229,0)"/><stop offset="20%" stop-opacity="1" style="stop-color:rgb(255,218,0)"/><stop offset="30.000000000000004%" stop-opacity="1" style="stop-color:rgb(255,206,0)"/><stop offset="40%" stop-opacity="1" style="stop-color:rgb(255,194,0)"/><stop offset="50%" stop-opacity="1" style="stop-color:rgb(255,183,0)"/><stop offset="60%" stop-opacity="1" style="stop-color:rgb(255,171,0)"/><stop offset="70%" stop-opacity="1" style="stop-color:rgb(255,159,0)"/><stop offset="80%" stop-opacity="1" style="stop-color:rgb(255,147,0)"/><stop offset="89.99999999999999%" stop-opacity="1" style="stop-color:rgb(255,136,0)"/><stop offset="99.99999999999999%" stop-opacity="1" style="stop-color:rgb(255,124,0)"/></linearGradient><path d=" M 308.332 39.662 L 299.811 60.404 L 303.397 60.404 L 305.303 55.499 L 314.162 55.499 L 316.123 60.404 L 319.711 60.404 L 311.329 39.662 L 308.332 39.662 Z  M 309.704 43.501 L 313.264 52.835 L 306.202 52.835 L 309.704 43.501 Z " fill="url(#_lgradient_3)"/><linearGradient id="_lgradient_4" x1="0.49999199015855567" y1="-0.76975215504773" x2="0.49999188080918344" y2="0.9953837719626961" gradientTransform="matrix(14.632,0,0,20.742,321.814,39.662)" gradientUnits="userSpaceOnUse"><stop offset="0%" stop-opacity="1" style="stop-color:rgb(255,241,0)"/><stop offset="10%" stop-opacity="1" style="stop-color:rgb(255,229,0)"/><stop offset="20%" stop-opacity="1" style="stop-color:rgb(255,218,0)"/><stop offset="30.000000000000004%" stop-opacity="1" style="stop-color:rgb(255,206,0)"/><stop offset="40%" stop-opacity="1" style="stop-color:rgb(255,194,0)"/><stop offset="50%" stop-opacity="1" style="stop-color:rgb(255,183,0)"/><stop offset="60%" stop-opacity="1" style="stop-color:rgb(255,171,0)"/><stop offset="70%" stop-opacity="1" style="stop-color:rgb(255,159,0)"/><stop offset="80%" stop-opacity="1" style="stop-color:rgb(255,147,0)"/><stop offset="89.99999999999999%" stop-opacity="1" style="stop-color:rgb(255,136,0)"/><stop offset="99.99999999999999%" stop-opacity="1" style="stop-color:rgb(255,124,0)"/></linearGradient><path d=" M 321.814 39.662 L 321.814 60.404 L 325.122 60.404 L 325.122 42.578 L 327.954 42.578 C 329.439 42.578 330.587 42.689 331.484 43.249 L 331.484 43.249 C 332.578 43.978 333.251 45.351 333.251 46.753 L 333.251 46.753 C 333.251 48.099 332.774 49.305 331.821 50.146 L 331.821 50.146 C 330.84 50.986 329.102 51.042 327.673 51.042 L 327.673 51.042 L 326.944 51.042 L 332.635 60.404 L 336.137 60.404 L 331.26 52.696 C 332.859 52.416 334.204 51.912 335.269 50.425 L 335.269 50.425 C 336.027 49.331 336.446 47.93 336.446 46.472 L 336.446 46.472 C 336.446 44.146 335.409 41.988 333.699 40.867 L 333.699 40.867 C 332.607 40.111 330.924 39.662 327.673 39.662 L 327.673 39.662 L 321.814 39.662 Z " fill="url(#_lgradient_4)"/><clipPath id="_clipPath_pbOnIW95ttE3TFH3WPuauiUy9DNl9vCV"><path d=" M 0 0 L 364 0 L 364 142 L 0 142 L 0 0 Z " fill="rgb(255,255,255)"/></clipPath><g clip-path="url(#_clipPath_pbOnIW95ttE3TFH3WPuauiUy9DNl9vCV)"><path d=" M 131.557 78.924 C 131.748 81.577 133.613 82.103 134.544 82.103 C 136.122 82.103 137.484 80.86 137.484 79.282 C 137.484 77.32 135.813 76.867 133.541 76.033 C 132.154 75.577 129.071 74.551 129.071 71.227 C 129.047 67.927 131.869 66.136 134.64 66.136 C 136.911 66.136 139.755 67.379 139.971 71.013 L 137.199 71.013 C 137.007 70.054 136.577 68.525 134.544 68.525 C 133.111 68.525 131.869 69.507 131.869 71.013 C 131.869 72.733 133.182 73.163 136.026 74.214 C 138.226 75.148 140.283 76.271 140.283 79.138 C 140.283 82.009 138.346 84.494 134.57 84.494 C 131.055 84.494 128.808 82.341 128.759 78.924 L 131.557 78.924 Z " fill="rgb(62,87,110)"/><path d=" M 157.596 66.47 L 167.492 66.47 L 167.492 68.956 L 160.415 68.956 L 160.415 73.979 L 167.396 73.979 L 167.396 76.436 L 160.415 76.436 L 160.415 81.672 L 167.492 81.672 L 167.492 84.159 L 157.596 84.159 L 157.596 66.47 Z " fill="rgb(62,87,110)"/><path d=" M 184.328 66.47 L 189.322 66.47 C 192.098 66.47 193.529 66.853 194.462 67.498 C 195.923 68.453 196.806 70.294 196.806 72.279 C 196.806 73.523 196.447 74.718 195.802 75.648 C 194.892 76.918 193.745 77.347 192.384 77.585 L 196.543 84.159 L 193.554 84.159 L 188.702 76.176 L 189.322 76.176 C 190.543 76.176 192.023 76.127 192.861 75.41 C 193.674 74.694 194.082 73.666 194.082 72.516 C 194.082 71.324 193.508 70.152 192.575 69.529 C 191.809 69.051 190.83 68.956 189.564 68.956 L 187.147 68.956 L 187.147 84.159 L 184.328 84.159 L 184.328 66.47 Z " fill="rgb(62,87,110)"/><path d=" M 210.547 66.47 L 213.463 66.47 L 218.578 80.716 L 223.719 66.47 L 226.635 66.47 L 219.967 84.159 L 217.168 84.159 L 210.547 66.47 Z " fill="rgb(62,87,110)"/><path d=" M 245.205 66.47 L 248.024 66.47 L 248.024 84.159 L 245.205 84.159 L 245.205 66.47 Z " fill="rgb(62,87,110)"/><path d=" M 283.447 78.781 C 282.348 82.009 279.074 84.494 275.056 84.494 C 269.725 84.494 265.805 80.31 265.805 75.291 C 265.805 70.437 269.56 66.135 275.034 66.135 C 279.792 66.159 282.611 69.507 283.469 71.943 L 280.483 71.943 C 279.911 70.796 278.116 68.645 275.009 68.621 C 271.255 68.621 268.627 71.704 268.627 75.291 C 268.627 78.972 271.304 82.009 275.034 82.009 C 278.452 82.009 280.098 79.427 280.483 78.781 L 283.447 78.781 Z " fill="rgb(62,87,110)"/><path d=" M 297.715 66.47 L 307.61 66.47 L 307.61 68.956 L 300.533 68.956 L 300.533 73.979 L 307.513 73.979 L 307.513 76.436 L 300.533 76.436 L 300.533 81.672 L 307.61 81.672 L 307.61 84.159 L 297.715 84.159 L 297.715 66.47 Z " fill="rgb(62,87,110)"/><path d=" M 327.723 78.924 C 327.912 81.577 329.778 82.103 330.708 82.103 C 332.287 82.103 333.648 80.86 333.648 79.282 C 333.648 77.32 331.975 76.867 329.706 76.033 C 328.32 75.577 325.235 74.551 325.235 71.227 C 325.212 67.927 328.032 66.136 330.805 66.136 C 333.076 66.136 335.92 67.379 336.136 71.013 L 333.364 71.013 C 333.17 70.054 332.742 68.525 330.708 68.525 C 329.276 68.525 328.032 69.507 328.032 71.013 C 328.032 72.733 329.348 73.163 332.193 74.214 C 334.39 75.148 336.447 76.271 336.447 79.138 C 336.447 82.009 334.509 84.494 330.735 84.494 C 327.218 84.494 324.973 82.341 324.924 78.924 L 327.723 78.924 Z " fill="rgb(62,87,110)"/></g></g></svg>
