<svg viewBox="0 0 34 34" fill="none" xmlns="http://www.w3.org/2000/svg">
<path d="M16.8799 28.3257C16.1768 28.4177 15.6265 29.0311 15.6571 29.7366V32.5584C15.6571 33.0798 15.9016 33.5399 16.3602 33.816C16.7882 34.0613 17.3385 34.0613 17.7971 33.816C18.2251 33.5706 18.5002 33.0798 18.5002 32.5584V29.7366C18.5002 29.3379 18.3168 28.9391 18.0111 28.6631C17.7054 28.4177 17.3079 28.295 16.8799 28.3257ZM25.8068 24.6757C25.2871 24.7677 24.8591 25.1665 24.7062 25.6572C24.5534 26.1787 24.7062 26.7307 25.1037 27.0988L27.0908 29.0925C27.6411 29.6446 28.5583 29.6446 29.1086 29.0618C29.6588 28.5097 29.6588 27.5896 29.078 27.0375L27.0908 25.1051C26.7851 24.7984 26.3877 24.6144 25.9291 24.6757C25.8985 24.6757 25.8374 24.6757 25.8068 24.6757ZM7.86131 24.6757C7.55559 24.7371 7.28045 24.8904 7.06645 25.1051L5.0793 27.0375C4.52901 27.5896 4.49844 28.479 5.04873 29.0618C5.59902 29.6139 6.48559 29.6446 7.06645 29.0925L9.0536 27.0988C9.51218 26.6694 9.63446 25.9946 9.35932 25.4425C9.08417 24.8598 8.47274 24.553 7.86131 24.6757ZM29.506 15.5968C28.7417 15.6582 28.1608 16.3636 28.222 17.1304C28.2831 17.8972 28.9863 18.48 29.7506 18.4186H32.5631C33.0829 18.4186 33.5414 18.1733 33.8166 17.7132C34.0611 17.2838 34.0611 16.7317 33.8166 16.2716C33.572 15.8422 33.0829 15.5662 32.5631 15.5662H29.7506C29.72 15.5662 29.6588 15.5662 29.6283 15.5662C29.5977 15.5662 29.5366 15.5968 29.506 15.5968ZM1.28842 15.5968C0.524135 15.6582 -0.0567249 16.3636 0.00441819 17.1304C0.0655613 17.8972 0.768707 18.48 1.533 18.4186H4.34558C4.8653 18.4186 5.32387 18.1733 5.59901 17.7132C5.84359 17.2838 5.84359 16.7317 5.59901 16.2716C5.35444 15.8422 4.8653 15.5662 4.34558 15.5662H1.533C1.50243 15.5662 1.44128 15.5662 1.41071 15.5662C1.38014 15.5662 1.319 15.5968 1.28842 15.5968ZM17.0634 9.92252C20.9459 9.92252 24.1254 13.1124 24.1254 17.0077C24.1254 20.9031 20.9459 24.093 17.0634 24.093C13.1808 24.093 10.0013 20.9031 10.0013 17.0077C10.0013 13.1124 13.1808 9.92252 17.0634 9.92252ZM17.0634 7.1007C11.6522 7.1007 7.18874 11.5788 7.18874 17.0077C7.18874 22.4367 11.6522 26.9148 17.0634 26.9148C22.4745 26.9148 26.938 22.4367 26.938 17.0077C26.938 11.5788 22.5051 7.1007 17.0634 7.1007ZM27.9163 4.52426C27.6105 4.55493 27.3048 4.73896 27.0908 4.95366L25.1037 6.94734C24.6757 7.28473 24.4922 7.83683 24.6145 8.35825C24.7368 8.87967 25.1342 9.30908 25.6845 9.43177C26.2043 9.55446 26.7545 9.37043 27.0908 8.94102L29.078 6.94734C29.506 6.54861 29.6283 5.9045 29.3837 5.38307C29.1697 4.86165 28.6194 4.49359 28.0385 4.52426C28.008 4.52426 27.9468 4.52426 27.9163 4.52426ZM5.78244 4.52426C5.26273 4.61627 4.83473 5.01501 4.68187 5.50576C4.52901 6.02718 4.68187 6.57928 5.0793 6.94734L7.06645 8.94102C7.40274 9.37043 7.95303 9.55446 8.47274 9.43177C8.99246 9.30908 9.42046 8.91035 9.54275 8.35825C9.66503 7.83683 9.4816 7.28473 9.0536 6.94734L7.06645 4.95366C6.79131 4.67762 6.42445 4.52426 6.05759 4.52426C6.02702 4.52426 5.96587 4.52426 5.9353 4.52426C5.90473 4.52426 5.81302 4.52426 5.78244 4.52426ZM16.8799 0.015481C16.1768 0.107497 15.6571 0.720936 15.6571 1.42639V4.24821C15.6571 4.76963 15.9016 5.22971 16.3602 5.50576C16.7882 5.75114 17.3385 5.75114 17.7971 5.50576C18.2251 5.26038 18.5002 4.76963 18.5002 4.24821V1.42639C18.4696 1.02766 18.3168 0.62892 18.0111 0.352872C17.7054 0.0768249 17.3079 -0.0458629 16.8799 0.015481Z" fill="url(#paint0_linear)"/>
<defs>
<linearGradient id="paint0_linear" x1="17.0075" y1="0.708943" x2="17.0075" y2="33.6827" gradientUnits="userSpaceOnUse">
<stop stop-color="#FFCD03"/>
<stop offset="0.9949" stop-color="#F37321"/>
</linearGradient>
</defs>
</svg>
